<svg width="23" height="24" viewBox="0 0 23 24" fill="none" xmlns="http://www.w3.org/2000/svg">
<path d="M18.1667 7.74947C18.1667 6.00343 17.4643 4.3289 16.214 3.09427C14.9638 1.85963 13.2681 1.16602 11.5 1.16602C9.73189 1.16602 8.0362 1.85963 6.78596 3.09427C5.53571 4.3289 4.83333 6.00343 4.83333 7.74947C4.83333 15.4302 1.5 17.6247 1.5 17.6247H21.5C21.5 17.6247 18.1667 15.4302 18.1667 7.74947Z" stroke="#E6EEF2" stroke-width="2" stroke-linecap="round" stroke-linejoin="round"/>
<path d="M13.4226 21.7402C13.2272 22.0728 12.9468 22.3488 12.6095 22.5407C12.2721 22.7326 11.8897 22.8336 11.5003 22.8336C11.111 22.8336 10.7286 22.7326 10.3912 22.5407C10.0539 22.3488 9.77347 22.0728 9.57812 21.7402" stroke="#E6EEF2" stroke-width="2" stroke-linecap="round" stroke-linejoin="round"/>
</svg>
